<?xml version="1.0" encoding="UTF-8"?>
<svg id="Calque_1" data-name="Calque 1" xmlns="http://www.w3.org/2000/svg" viewBox="0 0 525.72 94.28">
  <g>
    <path d="M346.72,54.51c2.22-1.37,3.96-3.2,5.22-5.49,1.26-2.29,1.89-4.8,1.89-7.55s-.66-5.42-1.99-7.75c-1.33-2.33-3.18-4.19-5.56-5.56-2.38-1.37-5.08-2.06-8.1-2.06h-22.51v48.04h8.92v-17.36h4.87l17.36,17.36h12.63l-17.75-17.75c1.82-.32,3.49-.94,5.01-1.88ZM338.03,48.54h-13.45v-13.73h13.45c1.24,0,2.38.27,3.43.82,1.05.55,1.89,1.35,2.51,2.4.62,1.05.93,2.26.93,3.64s-.31,2.59-.93,3.64c-.62,1.05-1.45,1.85-2.51,2.4-1.05.55-2.2.82-3.43.82Z"/>
    <path d="M397.43,28.67c-3.77-2.17-7.95-3.26-12.52-3.26s-8.75,1.09-12.52,3.26c-3.77,2.17-6.75,5.15-8.92,8.92-2.17,3.77-3.26,7.95-3.26,12.52s1.09,8.75,3.26,12.52c2.17,3.77,5.15,6.75,8.92,8.92,3.77,2.17,7.95,3.26,12.52,3.26s8.75-1.09,12.52-3.26c3.77-2.17,6.75-5.15,8.92-8.92,2.17-3.77,3.26-7.95,3.26-12.52s-1.09-8.75-3.26-12.52c-2.17-3.77-5.15-6.75-8.92-8.92ZM398.63,58.14c-1.37,2.43-3.26,4.32-5.66,5.7s-5.09,2.06-8.06,2.06-5.6-.69-8.03-2.06c-2.43-1.37-4.32-3.26-5.7-5.66s-2.06-5.09-2.06-8.06.69-5.6,2.06-8.03c1.37-2.42,3.26-4.32,5.66-5.7,2.4-1.37,5.09-2.06,8.06-2.06s5.6.69,8.03,2.06c2.42,1.37,4.32,3.26,5.7,5.66,1.37,2.4,2.06,5.09,2.06,8.06s-.69,5.61-2.06,8.03Z"/>
    <path d="M452.33,60.06c-1.4,1.78-3.18,3.2-5.35,4.25-2.17,1.05-4.56,1.58-7.17,1.58-2.97,0-5.66-.67-8.06-2.02-2.4-1.35-4.29-3.19-5.66-5.52s-2.06-4.87-2.06-7.62c0-2.97.69-5.71,2.06-8.2,1.37-2.49,3.26-4.48,5.66-5.97,2.4-1.49,5.09-2.23,8.06-2.23,2.61,0,5,.51,7.17,1.54,2.17,1.03,3.95,2.43,5.32,4.19,1.37,1.76,2.31,3.72,2.81,5.87h9.13c-.55-3.84-1.96-7.33-4.22-10.47-2.26-3.13-5.16-5.59-8.68-7.38-3.52-1.78-7.37-2.68-11.53-2.68-4.58,0-8.75,1.14-12.52,3.43-3.77,2.29-6.75,5.38-8.92,9.27-2.17,3.89-3.26,8.12-3.26,12.7s1.09,8.36,3.26,12.04c2.17,3.68,5.15,6.6,8.92,8.75,3.77,2.15,7.95,3.23,12.52,3.23,4.16,0,8.02-.9,11.56-2.71,3.55-1.81,6.45-4.29,8.72-7.45,2.26-3.16,3.67-6.66,4.22-10.5h-9.13c-.5,2.15-1.45,4.12-2.85,5.9Z"/>
    <path d="M515.95,62.64c2.17-3.77,3.26-7.95,3.26-12.52s-1.09-8.75-3.26-12.52c-2.17-3.77-5.15-6.75-8.92-8.92-3.77-2.17-7.95-3.26-12.52-3.26s-8.75,1.09-12.52,3.26c-3.77,2.17-6.75,5.15-8.92,8.92-2.17,3.77-3.26,7.95-3.26,12.52s1.09,8.75,3.26,12.52c2.17,3.77,5.15,6.75,8.92,8.92,3.77,2.17,7.95,3.26,12.52,3.26s8.75-1.09,12.52-3.26c.2-.12.39-.25.59-.37l3.7,3.7,6.31-6.25-3.4-3.4c.62-.82,1.2-1.69,1.72-2.6ZM508.23,58.14c-.13.23-.27.46-.42.68l-10.29-10.29-6.31,6.25,9.82,9.82c-2,.86-4.17,1.3-6.52,1.3-2.93,0-5.6-.69-8.03-2.06-2.43-1.37-4.32-3.26-5.7-5.66-1.37-2.4-2.06-5.09-2.06-8.06s.69-5.6,2.06-8.03c1.37-2.42,3.26-4.32,5.66-5.7,2.4-1.37,5.09-2.06,8.06-2.06s5.6.69,8.03,2.06c2.42,1.37,4.32,3.26,5.7,5.66,1.37,2.4,2.06,5.09,2.06,8.06s-.69,5.61-2.06,8.03Z"/>
    <path d="M140.37,61.56c-1.72,2.2-3.86,3.92-6.42,5.18-2.56,1.26-5.38,1.89-8.44,1.89-3.48,0-6.62-.8-9.44-2.4-2.81-1.6-5.03-3.78-6.66-6.52-1.63-2.75-2.44-5.74-2.44-8.99,0-3.48.81-6.68,2.44-9.61,1.62-2.93,3.84-5.25,6.66-6.97s5.96-2.57,9.44-2.57c3.07,0,5.88.62,8.44,1.85,2.56,1.24,4.69,2.94,6.38,5.11,1.69,2.17,2.81,4.63,3.36,7.38h6.25c-.55-3.84-1.96-7.33-4.22-10.47-2.27-3.13-5.16-5.59-8.68-7.38-3.52-1.79-7.37-2.68-11.53-2.68-4.58,0-8.75,1.13-12.53,3.4-3.78,2.27-6.75,5.34-8.92,9.23-2.17,3.89-3.26,8.12-3.26,12.7s1.09,8.37,3.26,12.08c2.17,3.71,5.15,6.64,8.92,8.79,3.78,2.15,7.95,3.23,12.53,3.23,4.16,0,8.02-.9,11.57-2.71,3.55-1.81,6.45-4.29,8.72-7.45,2.27-3.16,3.67-6.66,4.22-10.5h-6.32c-.5,2.75-1.61,5.22-3.33,7.41Z"/>
    <polygon points="157.56 26.08 157.56 74.12 194.97 74.12 194.97 67.95 163.74 67.95 163.74 52.57 192.91 52.57 192.91 46.46 163.74 46.46 163.74 32.25 194.97 32.25 194.97 26.08 157.56 26.08"/>
    <path d="M230.01,54.05c2.36-1.3,4.19-3.11,5.49-5.42,1.3-2.31,1.96-4.86,1.96-7.65s-.62-5.25-1.85-7.52c-1.24-2.27-2.99-4.06-5.25-5.39-2.27-1.33-4.86-1.99-7.79-1.99h-20.04v48.05h6.18v-18.33h6.52l18.33,18.33h8.72l-18.29-18.35c2.21-.15,4.22-.72,6.04-1.73ZM226.99,33.32c1.35.71,2.4,1.72,3.16,3.02.75,1.3,1.13,2.85,1.13,4.63s-.38,3.33-1.13,4.63c-.76,1.3-1.81,2.31-3.16,3.02-1.35.71-2.83,1.06-4.43,1.06h-13.87v-17.44h13.87c1.6,0,3.08.36,4.43,1.06Z"/>
    <polygon points="242.27 26.08 242.27 32.25 259.56 32.25 259.56 74.12 265.74 74.12 265.74 32.25 283.11 32.25 283.11 26.08 242.27 26.08"/>
    <rect x="290.66" y="26.08" width="6.18" height="48.05"/>
  </g>
  <g>
    <path d="M68.87,59.62c-2.51-1.82-5.35-2.73-8.51-2.73-4.02,0-7.7,1.68-11.05,5.02l-14.57,14.57c-3.73-2.49-6.7-5.74-8.9-9.76-2.2-4.02-3.3-8.35-3.3-12.99,0-3.16.57-6.34,1.72-9.55h20.89v-3.01h-21.61c-1.34-1.87-2.42-3.88-3.23-6.03h24.84v-3.01h-25.77c-.48-1.87-.77-3.83-.86-5.89l31.44.07c4.98,0,9.56,1.23,13.75,3.7,4.19,2.47,7.51,5.79,9.98,9.98,2.46,4.19,3.7,8.77,3.7,13.75,0,4.64-1.08,8.97-3.23,12.99-1-2.92-2.76-5.29-5.28-7.11ZM65.93,46.87c.6-.6.9-1.33.9-2.19s-.3-1.59-.9-2.19c-.6-.6-1.33-.9-2.19-.9s-1.59.3-2.19.9c-.6.6-.9,1.33-.9,2.19s.3,1.59.9,2.19c.6.6,1.33.9,2.19.9s1.59-.3,2.19-.9Z"/>
    <g>
      <path d="M86.62,52.71c0-12.55-9.36-22.9-21.48-24.47,4.37,2.64,7.9,6.2,10.49,10.61.7,1.19,1.31,2.42,1.83,3.68,3.51,4.49,5.6,10.14,5.6,16.28,0,3.13-.55,6.14-1.55,8.93,3.2-4.16,5.1-9.37,5.1-15.02Z"/>
      <path d="M73.7,72.36l-1.13-3.3c-.96,3.7-2.73,7.26-5.35,10.38-2.01,2.4-4.36,4.35-6.92,5.85,5.12-1.13,9.93-3.9,13.56-8.23,4.68-5.58,6.47-12.62,5.53-19.3-.47,3.52-1.55,6.88-3.23,10.03l-2.45,4.57Z"/>
      <path d="M63.66,59.57c-.25,12.38-9.21,23.27-21.87,25.5-3.09.54-6.14.53-9.06.03,4.65,2.42,10.11,3.39,15.68,2.41,12.23-2.16,20.76-12.98,20.39-25.04-.39-.36-.8-.7-1.25-1.02-1.22-.88-2.51-1.5-3.89-1.88Z"/>
      <path d="M54.86,63.36c-3.67,6.35-9.57,10.61-16.14,12.35l-3.69,3.69-1.54-1.03c-.84-.56-1.64-1.15-2.4-1.79-4.22-.13-8.47-1.28-12.38-3.54-2.71-1.57-5.04-3.54-6.96-5.8,2.01,4.85,5.56,9.1,10.46,11.92,11.81,6.82,26.9,2.77,33.72-9.03,2-3.46,3.06-7.19,3.27-10.92-.89.09-1.76.28-2.61.57-.48,1.22-1.05,2.41-1.72,3.58Z"/>
      <path d="M22.01,63.72c-5.95-2.9-10.82-8.02-13.26-14.73-1.07-2.94-1.59-5.96-1.6-8.92-1.58,5-1.59,10.55.35,15.86,3.13,8.61,10.56,14.41,18.97,15.88-.96-1.25-1.83-2.58-2.61-4-.73-1.33-1.34-2.69-1.85-4.09Z"/>
      <path d="M20.6,49.51c-5.19-6.66-7.09-15.67-4.38-24.24l.45-1.3c1.07-2.87,2.58-5.44,4.43-7.67-4.43,2.82-7.99,7.06-9.93,12.37-3.95,10.86.2,22.7,9.36,28.89-.16-1.26-.24-2.53-.24-3.83,0-1.4.11-2.81.32-4.22Z"/>
      <path d="M38.55,10.18c2.71-1.57,5.59-2.6,8.5-3.13-5.2-.69-10.66.27-15.56,3.1-5.53,3.19-9.35,8.19-11.16,13.83l6.59.02c2.06-5.62,6.02-10.58,11.62-13.81Z"/>
      <path d="M64.36,13.59c3.09.54,5.95,1.6,8.52,3.07-3.54-3.87-8.34-6.65-13.91-7.63-11.66-2.06-22.85,4.44-27.14,14.97h6.56c5.77-7.86,15.69-12.23,25.96-10.42Z"/>
      <path d="M54.35,24.36c9.74-2.79,20.65.16,27.59,8.43,2.01,2.4,3.53,5.05,4.56,7.83-.23-5.24-2.12-10.45-5.75-14.78-8.76-10.44-24.33-11.8-34.77-3.04-.48.4-.93.81-1.37,1.24h5.37c1.49.01,2.95.12,4.38.32Z"/>
    </g>
  </g>
</svg>