<?xml version="1.0" encoding="UTF-8"?>
<svg id="Calque_1" data-name="Calque 1" xmlns="http://www.w3.org/2000/svg" viewBox="0 0 318.33 320.03">
  <defs>
    <style>
      .cls-1 {
        fill: #260085;
      }

      .cls-2 {
        fill: #ff540a;
      }
    </style>
  </defs>
  <path class="cls-1" d="M244.11,206.12c-9.46-6.84-20.13-10.27-32.02-10.27-15.13,0-29.01,6.31-41.61,18.92l-54.85,54.85c-14.05-9.36-25.22-21.62-33.51-36.75-8.29-15.13-12.43-31.43-12.43-48.91,0-11.89,2.16-23.87,6.48-35.94h78.63v-11.35h-81.34c-5.05-7.03-9.1-14.59-12.16-22.7h93.49v-11.35H57.8c-1.8-7.03-2.88-14.41-3.24-22.16l118.35.27c18.73,0,35.98,4.64,51.75,13.92,15.76,9.28,28.28,21.8,37.56,37.56,9.28,15.77,13.92,33.01,13.92,51.75,0,17.48-4.05,33.78-12.16,48.91-3.78-10.99-10.4-19.9-19.86-26.75ZM233.04,158.16c2.25-2.25,3.38-5,3.38-8.24s-1.13-5.99-3.38-8.24c-2.25-2.25-5-3.38-8.24-3.38s-5.99,1.13-8.24,3.38c-2.25,2.25-3.38,5-3.38,8.24s1.12,5.99,3.38,8.24c2.25,2.25,5,3.38,8.24,3.38s5.99-1.12,8.24-3.38Z"/>
  <g>
    <path class="cls-2" d="M310.9,180.11c0-47.23-35.24-86.22-80.85-92.14,16.45,9.92,29.74,23.34,39.51,39.93,2.64,4.49,4.94,9.12,6.89,13.86,13.21,16.9,21.08,38.17,21.08,61.29,0,11.8-2.06,23.11-5.82,33.61,12.03-15.66,19.19-35.27,19.19-56.55Z"/>
    <path class="cls-2" d="M262.27,254.09l-4.27-12.41c-3.6,13.94-10.28,27.32-20.15,39.09-7.58,9.04-16.43,16.38-26.06,22.01,19.29-4.27,37.37-14.68,51.05-30.98,17.62-21,24.36-47.5,20.83-72.66-1.75,13.25-5.83,25.9-12.18,37.76l-9.21,17.2Z"/>
    <path class="cls-2" d="M224.48,205.96c-.94,46.62-34.67,87.6-82.32,96-11.62,2.05-23.11,1.99-34.11.11,17.52,9.13,38.06,12.77,59.02,9.08,46.05-8.12,78.15-48.86,76.75-94.27-1.46-1.35-3.02-2.64-4.7-3.85-4.59-3.32-9.44-5.66-14.64-7.07Z"/>
    <path class="cls-2" d="M191.35,220.21c-13.8,23.91-36.02,39.93-60.74,46.48l-13.89,13.89-5.81-3.87c-3.15-2.1-6.16-4.35-9.05-6.72-15.89-.5-31.88-4.81-46.61-13.31-10.22-5.9-18.99-13.33-26.2-21.84,7.55,18.25,20.95,34.25,39.38,44.89,44.44,25.66,101.27,10.43,126.93-34.01,7.51-13.01,11.51-27.08,12.31-41.12-3.35.33-6.62,1.05-9.82,2.15-1.8,4.58-3.96,9.08-6.49,13.47Z"/>
    <path class="cls-2" d="M67.69,221.57c-22.38-10.92-40.73-30.2-49.92-55.45-4.03-11.08-5.97-22.42-6.03-33.57-5.95,18.83-5.97,39.7,1.31,59.7,11.79,32.4,39.74,54.26,71.43,59.79-3.62-4.7-6.9-9.73-9.83-15.07-2.74-4.99-5.06-10.13-6.96-15.39Z"/>
    <path class="cls-2" d="M62.37,168.07c-19.55-25.09-26.68-58.99-16.5-91.24l1.68-4.89c4.02-10.79,9.72-20.48,16.69-28.87-16.66,10.6-30.09,26.58-37.37,46.57-14.88,40.89.73,85.44,35.23,108.74-.61-4.73-.91-9.54-.91-14.42,0-5.27.4-10.57,1.19-15.89Z"/>
    <path class="cls-2" d="M129.94,20.03c10.22-5.9,21.04-9.77,32.02-11.77-19.58-2.59-40.14,1.02-58.56,11.65-20.8,12.01-35.2,30.85-42.01,52.05l24.83.06c7.75-21.17,22.68-39.84,43.73-51.99Z"/>
    <path class="cls-2" d="M227.1,32.86c11.62,2.05,22.4,6.04,32.09,11.57-13.34-14.57-31.4-25.02-52.35-28.72-43.89-7.74-86.01,16.7-102.16,56.36l24.71.06c21.73-29.64,59.08-46.08,97.72-39.27Z"/>
    <path class="cls-2" d="M189.43,73.4c36.67-10.52,77.75.62,103.85,31.73,7.58,9.04,13.28,19.02,17.15,29.49-.85-19.73-7.97-39.35-21.65-55.65-32.99-39.31-91.59-44.44-130.9-11.45-1.79,1.5-3.51,3.06-5.16,4.66l20.2.05c5.61,0,11.11.39,16.5,1.18Z"/>
  </g>
</svg>