<?xml version="1.0" encoding="UTF-8"?>
<svg id="Calque_1" data-name="Calque 1" xmlns="http://www.w3.org/2000/svg" viewBox="0 0 478.22 478.54">
  <g>
    <path d="M275.82,416.04c2.22-1.37,3.96-3.2,5.22-5.49,1.26-2.29,1.89-4.8,1.89-7.55s-.66-5.42-1.99-7.75c-1.33-2.33-3.18-4.19-5.56-5.56-2.38-1.37-5.08-2.06-8.1-2.06h-22.51v48.04h8.92v-17.36h4.87l17.36,17.36h12.63l-17.75-17.75c1.82-.32,3.49-.94,5.01-1.88ZM267.14,410.07h-13.45v-13.73h13.45c1.24,0,2.38.27,3.43.82,1.05.55,1.89,1.35,2.51,2.4.62,1.05.93,2.26.93,3.64s-.31,2.59-.93,3.64c-.62,1.05-1.45,1.85-2.51,2.4-1.05.55-2.2.82-3.43.82Z"/>
    <path d="M326.54,390.2c-3.77-2.17-7.95-3.26-12.52-3.26s-8.75,1.09-12.52,3.26c-3.77,2.17-6.75,5.15-8.92,8.92-2.17,3.77-3.26,7.95-3.26,12.52s1.09,8.75,3.26,12.52c2.17,3.77,5.15,6.75,8.92,8.92,3.77,2.17,7.95,3.26,12.52,3.26s8.75-1.09,12.52-3.26c3.77-2.17,6.75-5.15,8.92-8.92,2.17-3.77,3.26-7.95,3.26-12.52s-1.09-8.75-3.26-12.52c-2.17-3.77-5.15-6.75-8.92-8.92ZM327.74,419.68c-1.37,2.43-3.26,4.32-5.66,5.7s-5.09,2.06-8.06,2.06-5.6-.69-8.03-2.06c-2.43-1.37-4.32-3.26-5.7-5.66s-2.06-5.09-2.06-8.06.69-5.6,2.06-8.03c1.37-2.42,3.26-4.32,5.66-5.7,2.4-1.37,5.09-2.06,8.06-2.06s5.6.69,8.03,2.06c2.42,1.37,4.32,3.26,5.7,5.66,1.37,2.4,2.06,5.09,2.06,8.06s-.69,5.61-2.06,8.03Z"/>
    <path d="M381.44,421.6c-1.4,1.78-3.18,3.2-5.35,4.25-2.17,1.05-4.56,1.58-7.17,1.58-2.97,0-5.66-.67-8.06-2.02-2.4-1.35-4.29-3.19-5.66-5.52s-2.06-4.87-2.06-7.62c0-2.97.69-5.71,2.06-8.2,1.37-2.49,3.26-4.48,5.66-5.97,2.4-1.49,5.09-2.23,8.06-2.23,2.61,0,5,.51,7.17,1.54,2.17,1.03,3.95,2.43,5.32,4.19,1.37,1.76,2.31,3.72,2.81,5.87h9.13c-.55-3.84-1.96-7.33-4.22-10.47-2.26-3.13-5.16-5.59-8.68-7.38-3.52-1.78-7.37-2.68-11.53-2.68-4.58,0-8.75,1.14-12.52,3.43-3.77,2.29-6.75,5.38-8.92,9.27-2.17,3.89-3.26,8.12-3.26,12.7s1.09,8.36,3.26,12.04c2.17,3.68,5.15,6.6,8.92,8.75,3.77,2.15,7.95,3.23,12.52,3.23,4.16,0,8.02-.9,11.56-2.71,3.55-1.81,6.45-4.29,8.72-7.45,2.26-3.16,3.67-6.66,4.22-10.5h-9.13c-.5,2.15-1.45,4.12-2.85,5.9Z"/>
    <path d="M445.06,424.17c2.17-3.77,3.26-7.95,3.26-12.52s-1.09-8.75-3.26-12.52c-2.17-3.77-5.15-6.75-8.92-8.92-3.77-2.17-7.95-3.26-12.52-3.26s-8.75,1.09-12.52,3.26c-3.77,2.17-6.75,5.15-8.92,8.92-2.17,3.77-3.26,7.95-3.26,12.52s1.09,8.75,3.26,12.52c2.17,3.77,5.15,6.75,8.92,8.92,3.77,2.17,7.95,3.26,12.52,3.26s8.75-1.09,12.52-3.26c.2-.12.39-.25.59-.37l3.7,3.7,6.31-6.25-3.4-3.4c.62-.82,1.2-1.69,1.72-2.6ZM437.34,419.68c-.13.23-.27.46-.42.68l-10.29-10.29-6.31,6.25,9.82,9.82c-2,.86-4.17,1.3-6.52,1.3-2.93,0-5.6-.69-8.03-2.06-2.43-1.37-4.32-3.26-5.7-5.66-1.37-2.4-2.06-5.09-2.06-8.06s.69-5.6,2.06-8.03c1.37-2.42,3.26-4.32,5.66-5.7,2.4-1.37,5.09-2.06,8.06-2.06s5.6.69,8.03,2.06c2.42,1.37,4.32,3.26,5.7,5.66,1.37,2.4,2.06,5.09,2.06,8.06s-.69,5.61-2.06,8.03Z"/>
    <path d="M69.47,423.1c-1.72,2.2-3.86,3.92-6.42,5.18-2.56,1.26-5.38,1.89-8.44,1.89-3.48,0-6.62-.8-9.44-2.4-2.81-1.6-5.03-3.78-6.66-6.52-1.63-2.75-2.44-5.74-2.44-8.99,0-3.48.81-6.68,2.44-9.61,1.62-2.93,3.84-5.25,6.66-6.97s5.96-2.57,9.44-2.57c3.07,0,5.88.62,8.44,1.85,2.56,1.24,4.69,2.94,6.38,5.11,1.69,2.17,2.81,4.63,3.36,7.38h6.25c-.55-3.84-1.96-7.33-4.22-10.47-2.27-3.13-5.16-5.59-8.68-7.38-3.52-1.79-7.37-2.68-11.53-2.68-4.58,0-8.75,1.13-12.53,3.4-3.78,2.27-6.75,5.34-8.92,9.23-2.17,3.89-3.26,8.12-3.26,12.7s1.09,8.37,3.26,12.08c2.17,3.71,5.15,6.64,8.92,8.79,3.78,2.15,7.95,3.23,12.53,3.23,4.16,0,8.02-.9,11.57-2.71,3.55-1.81,6.45-4.29,8.72-7.45,2.27-3.16,3.67-6.66,4.22-10.5h-6.32c-.5,2.75-1.61,5.22-3.33,7.41Z"/>
    <polygon points="86.67 387.61 86.67 435.66 124.08 435.66 124.08 429.48 92.85 429.48 92.85 414.1 122.02 414.1 122.02 407.99 92.85 407.99 92.85 393.79 124.08 393.79 124.08 387.61 86.67 387.61"/>
    <path d="M159.12,415.58c2.36-1.3,4.19-3.11,5.49-5.42,1.3-2.31,1.96-4.86,1.96-7.65s-.62-5.25-1.85-7.52c-1.24-2.27-2.99-4.06-5.25-5.39-2.27-1.33-4.86-1.99-7.79-1.99h-20.04v48.05h6.18v-18.33h6.52l18.33,18.33h8.72l-18.29-18.35c2.21-.15,4.22-.72,6.04-1.73ZM156.1,394.85c1.35.71,2.4,1.72,3.16,3.02.75,1.3,1.13,2.85,1.13,4.63s-.38,3.33-1.13,4.63c-.76,1.3-1.81,2.31-3.16,3.02-1.35.71-2.83,1.06-4.43,1.06h-13.87v-17.44h13.87c1.6,0,3.08.36,4.43,1.06Z"/>
    <polygon points="171.37 387.61 171.37 393.79 188.67 393.79 188.67 435.66 194.85 435.66 194.85 393.79 212.21 393.79 212.21 387.61 171.37 387.61"/>
    <rect x="219.76" y="387.61" width="6.18" height="48.05"/>
  </g>
  <g>
    <path d="M324.06,233.98c-9.46-6.84-20.13-10.27-32.02-10.27-15.13,0-29.01,6.31-41.61,18.92l-54.85,54.85c-14.05-9.36-25.22-21.62-33.51-36.75-8.29-15.13-12.43-31.43-12.43-48.91,0-11.89,2.16-23.87,6.48-35.94h78.63v-11.35h-81.34c-5.05-7.03-9.1-14.59-12.16-22.7h93.49v-11.35h-97.01c-1.8-7.03-2.88-14.41-3.24-22.16l118.35.27c18.73,0,35.98,4.64,51.75,13.92,15.76,9.28,28.28,21.8,37.56,37.56,9.28,15.77,13.92,33.01,13.92,51.75,0,17.48-4.05,33.78-12.16,48.91-3.78-10.99-10.4-19.9-19.86-26.75ZM312.98,186.01c2.25-2.25,3.38-5,3.38-8.24s-1.13-5.99-3.38-8.24c-2.25-2.25-5-3.38-8.24-3.38s-5.99,1.13-8.24,3.38c-2.25,2.25-3.38,5-3.38,8.24s1.12,5.99,3.38,8.24c2.25,2.25,5,3.38,8.24,3.38s5.99-1.12,8.24-3.38Z"/>
    <g>
      <path d="M390.85,207.96c0-47.23-35.24-86.22-80.85-92.14,16.45,9.92,29.74,23.34,39.51,39.93,2.64,4.49,4.94,9.12,6.89,13.86,13.21,16.9,21.08,38.17,21.08,61.29,0,11.8-2.06,23.11-5.82,33.61,12.03-15.66,19.19-35.27,19.19-56.55Z"/>
      <path d="M342.22,281.95l-4.27-12.41c-3.6,13.94-10.28,27.32-20.15,39.09-7.58,9.04-16.43,16.38-26.06,22.01,19.29-4.27,37.37-14.68,51.05-30.98,17.62-21,24.36-47.5,20.83-72.66-1.75,13.25-5.83,25.9-12.18,37.76l-9.21,17.2Z"/>
      <path d="M304.43,233.81c-.94,46.62-34.67,87.6-82.32,96-11.62,2.05-23.11,1.99-34.11.11,17.52,9.13,38.06,12.77,59.02,9.08,46.05-8.12,78.15-48.86,76.75-94.27-1.46-1.35-3.02-2.64-4.7-3.85-4.59-3.32-9.44-5.66-14.64-7.07Z"/>
      <path d="M271.3,248.06c-13.8,23.91-36.02,39.93-60.74,46.48l-13.89,13.89-5.81-3.87c-3.15-2.1-6.16-4.35-9.05-6.72-15.89-.5-31.88-4.81-46.61-13.31-10.22-5.9-18.99-13.33-26.2-21.84,7.55,18.25,20.95,34.25,39.38,44.89,44.44,25.66,101.27,10.43,126.93-34.01,7.51-13.01,11.51-27.08,12.31-41.12-3.35.33-6.62,1.05-9.82,2.15-1.8,4.58-3.96,9.08-6.49,13.47Z"/>
      <path d="M147.63,249.43c-22.38-10.92-40.73-30.2-49.92-55.45-4.03-11.08-5.97-22.42-6.03-33.57-5.95,18.83-5.97,39.7,1.31,59.7,11.79,32.4,39.74,54.26,71.43,59.79-3.62-4.7-6.9-9.73-9.83-15.07-2.74-4.99-5.06-10.13-6.96-15.39Z"/>
      <path d="M142.31,195.92c-19.55-25.09-26.68-58.99-16.5-91.24l1.68-4.89c4.02-10.79,9.72-20.48,16.69-28.87-16.66,10.6-30.09,26.58-37.37,46.57-14.88,40.89.73,85.44,35.23,108.74-.61-4.73-.91-9.54-.91-14.42,0-5.27.4-10.57,1.19-15.89Z"/>
      <path d="M209.89,47.89c10.22-5.9,21.04-9.77,32.02-11.77-19.58-2.59-40.14,1.02-58.56,11.65-20.8,12.01-35.2,30.85-42.01,52.05l24.83.06c7.75-21.17,22.68-39.84,43.73-51.99Z"/>
      <path d="M307.05,60.71c11.62,2.05,22.4,6.04,32.09,11.57-13.34-14.57-31.4-25.02-52.35-28.72-43.89-7.74-86.01,16.7-102.16,56.36l24.71.06c21.73-29.64,59.08-46.08,97.72-39.27Z"/>
      <path d="M269.38,101.25c36.67-10.52,77.75.62,103.85,31.73,7.58,9.04,13.28,19.02,17.15,29.49-.85-19.73-7.97-39.35-21.65-55.65-32.99-39.31-91.59-44.44-130.9-11.45-1.79,1.5-3.51,3.06-5.16,4.66l20.2.05c5.61,0,11.11.39,16.5,1.18Z"/>
    </g>
  </g>
</svg>