<?xml version="1.0" encoding="UTF-8" standalone="no"?>
<!-- Created with Inkscape (http://www.inkscape.org/) -->

<svg
   width="1280"
   height="640"
   viewBox="0 0 338.66666 169.33333"
   version="1.1"
   id="svg1"
   inkscape:version="1.4 (e7c3feb1, 2024-10-09)"
   sodipodi:docname="certirocq-media.svg"
   inkscape:export-filename="certirocq-media.png"
   inkscape:export-xdpi="96"
   inkscape:export-ydpi="96"
   xmlns:inkscape="http://www.inkscape.org/namespaces/inkscape"
   xmlns:sodipodi="http://sodipodi.sourceforge.net/DTD/sodipodi-0.dtd"
   xmlns="http://www.w3.org/2000/svg"
   xmlns:svg="http://www.w3.org/2000/svg">
  <sodipodi:namedview
     id="namedview1"
     pagecolor="#ffffff"
     bordercolor="#000000"
     borderopacity="0.25"
     inkscape:showpageshadow="2"
     inkscape:pageopacity="0.0"
     inkscape:pagecheckerboard="0"
     inkscape:deskcolor="#d1d1d1"
     inkscape:document-units="px"
     inkscape:zoom="0.89887065"
     inkscape:cx="396.60879"
     inkscape:cy="560.70359"
     inkscape:window-width="1800"
     inkscape:window-height="1069"
     inkscape:window-x="0"
     inkscape:window-y="315"
     inkscape:window-maximized="0"
     inkscape:current-layer="layer1" />
  <defs
     id="defs1" />
  <g
     inkscape:label="Layer 1"
     inkscape:groupmode="layer"
     id="layer1">
    <g
       id="g1"
       transform="translate(3.8265609,40.620415)">
      <g
         id="g6"
         transform="matrix(0.56963958,0,0,0.56963958,14.220061,11.104337)">
        <path
           class="cls-1"
           d="m 346.72,54.51 c 2.22,-1.37 3.96,-3.2 5.22,-5.49 1.26,-2.29 1.89,-4.8 1.89,-7.55 0,-2.75 -0.66,-5.42 -1.99,-7.75 -1.33,-2.33 -3.18,-4.19 -5.56,-5.56 -2.38,-1.37 -5.08,-2.06 -8.1,-2.06 h -22.51 v 48.04 h 8.92 V 56.78 h 4.87 l 17.36,17.36 h 12.63 L 341.7,56.39 c 1.82,-0.32 3.49,-0.94 5.01,-1.88 z m -8.69,-5.97 H 324.58 V 34.81 h 13.45 c 1.24,0 2.38,0.27 3.43,0.82 1.05,0.55 1.89,1.35 2.51,2.4 0.62,1.05 0.93,2.26 0.93,3.64 0,1.38 -0.31,2.59 -0.93,3.64 -0.62,1.05 -1.45,1.85 -2.51,2.4 -1.05,0.55 -2.2,0.82 -3.43,0.82 z"
           id="path1"
           style="fill:#260085" />
        <path
           class="cls-1"
           d="m 397.43,28.67 c -3.77,-2.17 -7.95,-3.26 -12.52,-3.26 -4.57,0 -8.75,1.09 -12.52,3.26 -3.77,2.17 -6.75,5.15 -8.92,8.92 -2.17,3.77 -3.26,7.95 -3.26,12.52 0,4.57 1.09,8.75 3.26,12.52 2.17,3.77 5.15,6.75 8.92,8.92 3.77,2.17 7.95,3.26 12.52,3.26 4.57,0 8.75,-1.09 12.52,-3.26 3.77,-2.17 6.75,-5.15 8.92,-8.92 2.17,-3.77 3.26,-7.95 3.26,-12.52 0,-4.57 -1.09,-8.75 -3.26,-12.52 -2.17,-3.77 -5.15,-6.75 -8.92,-8.92 z m 1.2,29.47 c -1.37,2.43 -3.26,4.32 -5.66,5.7 -2.4,1.38 -5.09,2.06 -8.06,2.06 -2.97,0 -5.6,-0.69 -8.03,-2.06 -2.43,-1.37 -4.32,-3.26 -5.7,-5.66 -1.38,-2.4 -2.06,-5.09 -2.06,-8.06 0,-2.97 0.69,-5.6 2.06,-8.03 1.37,-2.42 3.26,-4.32 5.66,-5.7 2.4,-1.37 5.09,-2.06 8.06,-2.06 2.97,0 5.6,0.69 8.03,2.06 2.42,1.37 4.32,3.26 5.7,5.66 1.37,2.4 2.06,5.09 2.06,8.06 0,2.97 -0.69,5.61 -2.06,8.03 z"
           id="path2"
           style="fill:#260085" />
        <path
           class="cls-1"
           d="m 452.33,60.06 c -1.4,1.78 -3.18,3.2 -5.35,4.25 -2.17,1.05 -4.56,1.58 -7.17,1.58 -2.97,0 -5.66,-0.67 -8.06,-2.02 -2.4,-1.35 -4.29,-3.19 -5.66,-5.52 -1.37,-2.33 -2.06,-4.87 -2.06,-7.62 0,-2.97 0.69,-5.71 2.06,-8.2 1.37,-2.49 3.26,-4.48 5.66,-5.97 2.4,-1.49 5.09,-2.23 8.06,-2.23 2.61,0 5,0.51 7.17,1.54 2.17,1.03 3.95,2.43 5.32,4.19 1.37,1.76 2.31,3.72 2.81,5.87 h 9.13 c -0.55,-3.84 -1.96,-7.33 -4.22,-10.47 -2.26,-3.13 -5.16,-5.59 -8.68,-7.38 -3.52,-1.78 -7.37,-2.68 -11.53,-2.68 -4.58,0 -8.75,1.14 -12.52,3.43 -3.77,2.29 -6.75,5.38 -8.92,9.27 -2.17,3.89 -3.26,8.12 -3.26,12.7 0,4.58 1.09,8.36 3.26,12.04 2.17,3.68 5.15,6.6 8.92,8.75 3.77,2.15 7.95,3.23 12.52,3.23 4.16,0 8.02,-0.9 11.56,-2.71 3.55,-1.81 6.45,-4.29 8.72,-7.45 2.26,-3.16 3.67,-6.66 4.22,-10.5 h -9.13 c -0.5,2.15 -1.45,4.12 -2.85,5.9 z"
           id="path3"
           style="fill:#260085" />
        <path
           class="cls-1"
           d="m 515.95,62.64 c 2.17,-3.77 3.26,-7.95 3.26,-12.52 0,-4.57 -1.09,-8.75 -3.26,-12.52 -2.17,-3.77 -5.15,-6.75 -8.92,-8.92 -3.77,-2.17 -7.95,-3.26 -12.52,-3.26 -4.57,0 -8.75,1.09 -12.52,3.26 -3.77,2.17 -6.75,5.15 -8.92,8.92 -2.17,3.77 -3.26,7.95 -3.26,12.52 0,4.57 1.09,8.75 3.26,12.52 2.17,3.77 5.15,6.75 8.92,8.92 3.77,2.17 7.95,3.26 12.52,3.26 4.57,0 8.75,-1.09 12.52,-3.26 0.2,-0.12 0.39,-0.25 0.59,-0.37 l 3.7,3.7 6.31,-6.25 -3.4,-3.4 c 0.62,-0.82 1.2,-1.69 1.72,-2.6 z m -7.72,-4.5 c -0.13,0.23 -0.27,0.46 -0.42,0.68 l -10.29,-10.29 -6.31,6.25 9.82,9.82 c -2,0.86 -4.17,1.3 -6.52,1.3 -2.93,0 -5.6,-0.69 -8.03,-2.06 -2.43,-1.37 -4.32,-3.26 -5.7,-5.66 -1.37,-2.4 -2.06,-5.09 -2.06,-8.06 0,-2.97 0.69,-5.6 2.06,-8.03 1.37,-2.42 3.26,-4.32 5.66,-5.7 2.4,-1.37 5.09,-2.06 8.06,-2.06 2.97,0 5.6,0.69 8.03,2.06 2.42,1.37 4.32,3.26 5.7,5.66 1.37,2.4 2.06,5.09 2.06,8.06 0,2.97 -0.69,5.61 -2.06,8.03 z"
           id="path4"
           style="fill:#260085" />
        <path
           class="cls-1"
           d="m 140.37,61.56 c -1.72,2.2 -3.86,3.92 -6.42,5.18 -2.56,1.26 -5.38,1.89 -8.44,1.89 -3.48,0 -6.62,-0.8 -9.44,-2.4 -2.81,-1.6 -5.03,-3.78 -6.66,-6.52 -1.63,-2.75 -2.44,-5.74 -2.44,-8.99 0,-3.48 0.81,-6.68 2.44,-9.61 1.62,-2.93 3.84,-5.25 6.66,-6.97 2.82,-1.72 5.96,-2.57 9.44,-2.57 3.07,0 5.88,0.62 8.44,1.85 2.56,1.24 4.69,2.94 6.38,5.11 1.69,2.17 2.81,4.63 3.36,7.38 h 6.25 c -0.55,-3.84 -1.96,-7.33 -4.22,-10.47 -2.27,-3.13 -5.16,-5.59 -8.68,-7.38 -3.52,-1.79 -7.37,-2.68 -11.53,-2.68 -4.58,0 -8.75,1.13 -12.53,3.4 -3.78,2.27 -6.75,5.34 -8.92,9.23 -2.17,3.89 -3.26,8.12 -3.26,12.7 0,4.58 1.09,8.37 3.26,12.08 2.17,3.71 5.15,6.64 8.92,8.79 3.78,2.15 7.95,3.23 12.53,3.23 4.16,0 8.02,-0.9 11.57,-2.71 3.55,-1.81 6.45,-4.29 8.72,-7.45 2.27,-3.16 3.67,-6.66 4.22,-10.5 h -6.32 c -0.5,2.75 -1.61,5.22 -3.33,7.41 z"
           id="path5"
           style="fill:#260085" />
        <polygon
           class="cls-1"
           points="163.74,32.25 194.97,32.25 194.97,26.08 157.56,26.08 157.56,74.12 194.97,74.12 194.97,67.95 163.74,67.95 163.74,52.57 192.91,52.57 192.91,46.46 163.74,46.46 "
           id="polygon5"
           style="fill:#260085" />
        <path
           class="cls-1"
           d="m 230.01,54.05 c 2.36,-1.3 4.19,-3.11 5.49,-5.42 1.3,-2.31 1.96,-4.86 1.96,-7.65 0,-2.79 -0.62,-5.25 -1.85,-7.52 -1.24,-2.27 -2.99,-4.06 -5.25,-5.39 -2.27,-1.33 -4.86,-1.99 -7.79,-1.99 h -20.04 v 48.05 h 6.18 V 55.8 h 6.52 l 18.33,18.33 h 8.72 L 223.99,55.78 c 2.21,-0.15 4.22,-0.72 6.04,-1.73 z m -3.02,-20.73 c 1.35,0.71 2.4,1.72 3.16,3.02 0.75,1.3 1.13,2.85 1.13,4.63 0,1.78 -0.38,3.33 -1.13,4.63 -0.76,1.3 -1.81,2.31 -3.16,3.02 -1.35,0.71 -2.83,1.06 -4.43,1.06 H 208.69 V 32.24 h 13.87 c 1.6,0 3.08,0.36 4.43,1.06 z"
           id="path6"
           style="fill:#260085" />
        <polygon
           class="cls-1"
           points="242.27,32.25 259.56,32.25 259.56,74.12 265.74,74.12 265.74,32.25 283.11,32.25 283.11,26.08 242.27,26.08 "
           id="polygon6"
           style="fill:#260085" />
        <rect
           class="cls-1"
           x="290.66"
           y="26.08"
           width="6.1799998"
           height="48.049999"
           id="rect6"
           style="fill:#260085" />
      </g>
      <g
         id="g17"
         transform="matrix(0.56963958,0,0,0.56963958,14.220061,11.104337)">
        <path
           class="cls-2"
           d="m 68.87,59.62 c -2.51,-1.82 -5.35,-2.73 -8.51,-2.73 -4.02,0 -7.7,1.68 -11.05,5.02 L 34.74,76.48 c -3.73,-2.49 -6.7,-5.74 -8.9,-9.76 -2.2,-4.02 -3.3,-8.35 -3.3,-12.99 0,-3.16 0.57,-6.34 1.72,-9.55 H 45.15 V 41.17 H 23.54 C 22.2,39.3 21.12,37.29 20.31,35.14 H 45.15 V 32.13 H 19.38 C 18.9,30.26 18.61,28.3 18.52,26.24 l 31.44,0.07 c 4.98,0 9.56,1.23 13.75,3.7 4.19,2.47 7.51,5.79 9.98,9.98 2.46,4.19 3.7,8.77 3.7,13.75 0,4.64 -1.08,8.97 -3.23,12.99 -1,-2.92 -2.76,-5.29 -5.28,-7.11 z M 65.93,46.87 c 0.6,-0.6 0.9,-1.33 0.9,-2.19 0,-0.86 -0.3,-1.59 -0.9,-2.19 -0.6,-0.6 -1.33,-0.9 -2.19,-0.9 -0.86,0 -1.59,0.3 -2.19,0.9 -0.6,0.6 -0.9,1.33 -0.9,2.19 0,0.86 0.3,1.59 0.9,2.19 0.6,0.6 1.33,0.9 2.19,0.9 0.86,0 1.59,-0.3 2.19,-0.9 z"
           id="path7"
           style="fill:#ff540a" />
        <g
           id="g16">
          <path
             class="cls-1"
             d="m 86.62,52.71 c 0,-12.55 -9.36,-22.9 -21.48,-24.47 4.37,2.64 7.9,6.2 10.49,10.61 0.7,1.19 1.31,2.42 1.83,3.68 3.51,4.49 5.6,10.14 5.6,16.28 0,3.13 -0.55,6.14 -1.55,8.93 3.2,-4.16 5.1,-9.37 5.1,-15.02 z"
             id="path8"
             style="fill:#260085" />
          <path
             class="cls-1"
             d="m 73.7,72.36 -1.13,-3.3 c -0.96,3.7 -2.73,7.26 -5.35,10.38 -2.01,2.4 -4.36,4.35 -6.92,5.85 5.12,-1.13 9.93,-3.9 13.56,-8.23 4.68,-5.58 6.47,-12.62 5.53,-19.3 -0.47,3.52 -1.55,6.88 -3.23,10.03 l -2.45,4.57 z"
             id="path9"
             style="fill:#260085" />
          <path
             class="cls-1"
             d="m 63.66,59.57 c -0.25,12.38 -9.21,23.27 -21.87,25.5 -3.09,0.54 -6.14,0.53 -9.06,0.03 4.65,2.42 10.11,3.39 15.68,2.41 C 60.64,85.35 69.17,74.53 68.8,62.47 68.41,62.11 68,61.77 67.55,61.45 66.33,60.57 65.04,59.95 63.66,59.57 Z"
             id="path10"
             style="fill:#260085" />
          <path
             class="cls-1"
             d="M 54.86,63.36 C 51.19,69.71 45.29,73.97 38.72,75.71 L 35.03,79.4 33.49,78.37 C 32.65,77.81 31.85,77.22 31.09,76.58 26.87,76.45 22.62,75.3 18.71,73.04 16,71.47 13.67,69.5 11.75,67.24 c 2.01,4.85 5.56,9.1 10.46,11.92 11.81,6.82 26.9,2.77 33.72,-9.03 2,-3.46 3.06,-7.19 3.27,-10.92 -0.89,0.09 -1.76,0.28 -2.61,0.57 -0.48,1.22 -1.05,2.41 -1.72,3.58 z"
             id="path11"
             style="fill:#260085" />
          <path
             class="cls-1"
             d="M 22.01,63.72 C 16.06,60.82 11.19,55.7 8.75,48.99 7.68,46.05 7.16,43.03 7.15,40.07 c -1.58,5 -1.59,10.55 0.35,15.86 3.13,8.61 10.56,14.41 18.97,15.88 -0.96,-1.25 -1.83,-2.58 -2.61,-4 -0.73,-1.33 -1.34,-2.69 -1.85,-4.09 z"
             id="path12"
             style="fill:#260085" />
          <path
             class="cls-1"
             d="M 20.6,49.51 C 15.41,42.85 13.51,33.84 16.22,25.27 l 0.45,-1.3 c 1.07,-2.87 2.58,-5.44 4.43,-7.67 -4.43,2.82 -7.99,7.06 -9.93,12.37 -3.95,10.86 0.2,22.7 9.36,28.89 -0.16,-1.26 -0.24,-2.53 -0.24,-3.83 0,-1.4 0.11,-2.81 0.32,-4.22 z"
             id="path13"
             style="fill:#260085" />
          <path
             class="cls-1"
             d="m 38.55,10.18 c 2.71,-1.57 5.59,-2.6 8.5,-3.13 -5.2,-0.69 -10.66,0.27 -15.56,3.1 -5.53,3.19 -9.35,8.19 -11.16,13.83 L 26.92,24 c 2.06,-5.62 6.02,-10.58 11.62,-13.81 z"
             id="path14"
             style="fill:#260085" />
          <path
             class="cls-1"
             d="m 64.36,13.59 c 3.09,0.54 5.95,1.6 8.52,3.07 C 69.34,12.79 64.54,10.01 58.97,9.03 47.31,6.97 36.12,13.47 31.83,24 h 6.56 C 44.16,16.14 54.08,11.77 64.35,13.58 Z"
             id="path15"
             style="fill:#260085" />
          <path
             class="cls-1"
             d="m 54.35,24.36 c 9.74,-2.79 20.65,0.16 27.59,8.43 2.01,2.4 3.53,5.05 4.56,7.83 C 86.27,35.38 84.38,30.17 80.75,25.84 71.99,15.4 56.42,14.04 45.98,22.8 c -0.48,0.4 -0.93,0.81 -1.37,1.24 h 5.37 c 1.49,0.01 2.95,0.12 4.38,0.32 z"
             id="path16"
             style="fill:#260085" />
        </g>
      </g>
    </g>
  </g>
</svg>
